<svg width="55" height="40" viewBox="0 0 55 40" fill="none" xmlns="http://www.w3.org/2000/svg">
<path d="M27.677 0H27.983C30.8088 0.0106771 45.1269 0.117449 48.9874 1.19228C50.1545 1.52031 51.218 2.1597 52.0716 3.04656C52.9252 3.93342 53.5391 5.03669 53.8518 6.24611C54.199 7.59854 54.4431 9.38874 54.6081 11.2359L54.6425 11.606L54.7181 12.5314L54.7456 12.9015C54.9691 16.1545 54.9966 19.201 55 19.8665V20.1335C54.9966 20.8239 54.9656 24.0769 54.7181 27.4651L54.6906 27.8388L54.6597 28.2089C54.4878 30.2447 54.2334 32.2662 53.8518 33.7539C53.5391 34.9633 52.9252 36.0666 52.0716 36.9534C51.218 37.8403 50.1545 38.4797 48.9874 38.8077C44.9997 39.9181 29.8428 39.9964 27.7424 40H27.2542C26.192 40 21.7986 39.9786 17.192 39.8149L16.6076 39.7936L16.3085 39.7793L15.7207 39.7544L15.1328 39.7295C11.317 39.5551 7.68329 39.274 6.00913 38.8042C4.84246 38.4764 3.77925 37.8376 2.92567 36.9514C2.07209 36.0652 1.45802 34.9627 1.14476 33.7539C0.763173 32.2698 0.508782 30.2447 0.336896 28.2089L0.309394 27.8352L0.281893 27.4651C0.111256 25.0535 0.0172412 22.6368 0 20.2189L0 19.7811C0.00687543 19.0159 0.0343772 16.3716 0.220014 13.4532L0.244078 13.0866L0.254391 12.9015L0.281893 12.5314L0.357522 11.606L0.3919 11.2359C0.55691 9.38874 0.800988 7.59498 1.1482 6.24611C1.46093 5.03669 2.07477 3.93342 2.92838 3.04656C3.782 2.1597 4.84548 1.52031 6.01256 1.19228C7.68673 0.729603 11.3204 0.444879 15.1363 0.266927L15.7207 0.242014L16.312 0.220661L16.6076 0.209984L17.1955 0.18507C20.4672 0.0761762 23.7402 0.015666 27.0136 0.0035592L27.677 0ZM22.0014 11.4245V28.5719L36.292 20.0018L22.0014 11.4245Z" fill="white"/>
</svg>
